<svg width="512" height="512" viewBox="0 0 512 512" fill="none" xmlns="http://www.w3.org/2000/svg">
<path fill-rule="evenodd" clip-rule="evenodd" d="M178.22 434.817C102.897 377.115 0 281.797 0 191.673C0 41.1141 140.804 -15.0971 256 101.208C371.195 -15.0971 512 41.1141 512 191.672C512 281.799 409.103 377.115 333.78 434.817C299.681 460.94 282.632 474 256 474C229.368 474 212.319 460.94 178.22 434.817ZM371.2 122.162C381.804 122.162 390.4 130.754 390.4 141.353V173.339H422.4C433.004 173.339 441.6 181.931 441.6 192.53C441.6 203.129 433.004 211.721 422.4 211.721H390.4V243.706C390.4 254.305 381.804 262.897 371.2 262.897C360.596 262.897 352 254.305 352 243.706V211.721H320C309.396 211.721 300.8 203.129 300.8 192.53C300.8 181.931 309.396 173.339 320 173.339H352V141.353C352 130.754 360.596 122.162 371.2 122.162Z" fill="url(#paint0_linear_4_63)"/>
<defs>
<linearGradient id="paint0_linear_4_63" x1="256" y1="-37.7647" x2="256" y2="576.353" gradientUnits="userSpaceOnUse">
<stop stop-color="#F8EC20"/>
<stop offset="1" stop-color="#A79F1E"/>
</linearGradient>
</defs>
</svg>
